# Blender 3.3.0
# www.blender.org
mtllib lobby_test (1).mtl
o 2.002
v 1.373646 0.577407 -4.199656
v 3.108974 0.577407 -2.464327
v 3.108974 0.577408 0.285023
v 1.373646 0.577408 2.020351
v -1.375704 0.577407 -4.199656
v -1.375704 0.577408 2.020351
v 1.373646 0.577408 0.285023
v 1.373646 0.577407 -2.464327
v 1.373646 -0.297403 -4.199655
v -1.375704 -0.297403 -4.199655
v -3.111032 -0.297403 -2.464327
v -3.111032 -0.297403 0.285023
v 1.373646 -0.297402 2.020352
v 3.108974 -0.297403 0.285023
v -1.375704 -0.297403 -2.464327
v -1.375704 -0.297403 0.285023
v 1.373646 -0.297403 0.285023
v 1.373646 -0.297403 -2.464327
v 3.108974 0.577408 -0.678730
v -3.111032 0.577408 -0.678730
v -0.837550 0.577407 -4.199656
v 0.843190 0.577407 -4.199656
v 0.409893 0.577408 2.020351
v -0.411951 0.577408 2.020351
v -1.375704 0.577407 -2.458855
v -1.375704 0.577408 0.285023
v -3.957507 0.577408 -0.678730
v -3.957507 0.577407 -1.500574
v 3.943601 0.577408 -0.678730
v 0.843190 0.577407 -5.157937
v 0.409893 0.577408 2.983390
v -0.411951 0.577408 2.983390
v -3.111032 -0.572916 -0.678730
v -3.957507 -0.572916 -0.678730
v 3.108974 -0.297403 -2.464327
v -1.375704 -0.297402 2.020352
v 0.409893 -0.297402 2.020352
v -0.411951 -0.297402 2.020352
v 0.409893 -0.297402 2.983390
v -0.411951 -0.297402 2.983390
v 3.108974 -0.297403 -0.678730
v 3.943601 -0.297403 -0.678730
v -0.837550 0.577407 -5.157937
v -3.111032 0.577407 -2.464327
v -3.111032 0.577408 0.285023
v 3.108974 0.577407 -1.500574
v -3.111032 0.577407 -1.500574
v -0.893828 0.577407 -1.500574
v -0.893828 0.577408 -0.678730
v 0.891770 0.577407 -1.500574
v 0.891770 0.577408 -0.678730
v 0.409893 -0.361299 -1.982451
v -0.411951 -0.361299 -1.982451
v 0.409893 -0.361298 -0.196854
v 3.943601 0.577407 -1.500574
v -0.411951 -0.361298 -0.196854
v 0.891770 -0.361298 -0.678730
v 0.891770 -0.361298 -1.500574
v -0.893828 -0.361298 -0.678730
v -0.411951 0.577408 -0.196854
v 0.409893 0.577408 -0.196854
v -0.411951 0.577407 -1.982451
v 0.409893 0.577407 -1.982451
v -0.893828 -0.361298 -1.500574
v 1.373646 0.577407 -4.199656
v 3.108974 0.577407 -2.464327
v -1.375704 0.577407 -4.199656
v -3.111032 0.577407 -2.464327
v 1.373646 3.592647 -4.199656
v 3.108974 3.592647 -2.464328
v -1.375704 3.592647 -4.199656
v 3.108974 0.577407 -1.500574
v -3.111032 0.577407 -1.500574
v -3.957507 0.577407 -1.500574
v 3.943601 0.577407 -1.500574
v -3.111032 3.592647 -2.464328
v -3.111032 3.592648 -1.500575
v -3.957507 3.592648 -1.500575
v 3.108974 3.592648 -1.500575
v 3.943601 3.592648 -1.500575
v 0.825947 0.577407 -4.199656
v -0.828005 0.577407 -4.199656
v 0.825947 1.370041 -4.199656
v 0.336072 1.765078 -4.199656
v -0.338130 1.765078 -4.199656
v -0.828005 1.370041 -4.199656
v 0.825947 0.577407 -4.851330
v -0.828005 0.577407 -4.851330
v 0.825947 1.370040 -4.851330
v 0.336072 1.765078 -4.851330
v -0.338130 1.765078 -4.851330
v -0.828005 1.370040 -4.851330
vn 0.0016 0.0031 -1.0000
vn 1.0000 -0.0000 -0.0000
vn -0.0000 1.0000 -0.0000
vn -1.0000 -0.0000 -0.0000
vn -0.0000 -0.0000 1.0000
vn -0.0000 -0.0000 -1.0000
vn 0.7071 -0.0000 0.7071
vn -0.7071 -0.0000 0.7071
vn 0.7071 -0.0000 -0.7071
vn -0.7071 -0.0000 -0.7071
vn 0.6277 -0.7784 -0.0000
vn -0.6277 -0.7784 -0.0000
vn -0.0000 -1.0000 -0.0000
vt 0.322003 0.770468
vt 0.169444 0.729183
vt 0.445025 0.427964
vt 0.796295 0.669212
vt 0.169444 0.518937
vt 0.871397 0.433178
vt 0.316884 0.849380
vt 0.862875 0.437819
vt 0.871397 0.197639
vt 0.447780 0.664830
vt 0.597575 0.514343
vt 0.676413 0.278828
vt 0.695529 0.657130
vt 0.090564 0.518983
vt 0.209486 0.427964
vt 0.597575 0.278804
vt 0.400857 0.695507
vt 0.777893 0.810621
vt 0.447780 0.813497
vt 0.168217 0.849380
vt 0.448908 0.514343
vt 0.722730 0.197639
vt 0.687915 0.420375
vt 0.173336 0.770468
vt 0.796295 0.817879
vt 0.445025 0.279297
vt 0.722730 0.433178
vt 0.775646 0.674578
vt 0.921979 0.773708
vt 0.322003 0.695522
vt 0.094498 0.729183
vt 0.770474 0.657129
vt 0.542761 0.943190
vt 0.015618 0.518983
vt 0.526639 0.800077
vt 0.691427 0.794523
vt 0.015618 0.729230
vt 0.776002 0.193192
vt 0.015645 0.733863
vt 0.522726 0.664830
vt 0.404747 0.778111
vt 0.601467 0.278828
vt 0.553453 0.926739
vt 0.316884 0.774434
vt 0.937820 0.437819
vt 0.675307 0.800077
vt 0.770474 0.805796
vt 0.691427 0.943190
vt 0.924669 0.193153
vt 0.164312 0.733863
vt 0.325912 0.844174
vt 0.522726 0.813497
vt 0.404786 0.926778
vt 0.168217 0.774434
vt 0.922018 0.922375
vt 0.173336 0.695522
vt 0.871241 0.817879
vt 0.862875 0.520384
vt 0.526666 0.879031
vt 0.875298 0.345904
vt 0.871397 0.280204
vt 0.875321 0.197651
vt 0.173538 0.015608
vt 0.015625 0.361393
vt 0.255590 0.427964
vt 0.539576 0.638492
vt 0.399581 0.427964
vt 0.683566 0.638492
vt 0.597575 0.431777
vt 0.176982 0.853426
vt 0.912552 0.599382
vt 0.676413 0.361393
vt 0.597575 0.361369
vt 0.176982 0.923835
vt 0.090591 0.895322
vt 0.695327 0.810621
vt 0.675307 0.725130
vt 0.695529 0.806265
vt 0.209486 0.278828
vt 0.164292 0.513897
vt 0.775646 0.439038
vt 0.164312 0.808809
vt 0.400857 0.844174
vt 0.448908 0.278804
vt 0.164292 0.278827
vt 0.687915 0.655914
vt 0.875321 0.270169
vt 0.173538 0.088126
vt 0.945729 0.270169
vt 0.598170 0.879031
vt 0.875298 0.274401
vt 0.683566 0.720589
vt 0.094478 0.853426
vt 0.830047 0.599382
vt 0.094478 0.923835
vt 0.090591 0.812818
vt 0.074989 0.015608
vt 0.074989 0.088126
vt 0.773351 0.922414
vt 0.871241 0.669212
vt 0.094498 0.518937
vt 0.924629 0.044486
vt 0.325912 0.695507
vt 0.777893 0.885567
vt 0.912552 0.524436
vt 0.601467 0.361393
vt 0.015646 0.895322
vt 0.695327 0.885567
vt 0.830047 0.524436
vt 0.015646 0.812818
vt 0.937820 0.520384
vt 0.526666 0.804085
vt 0.598170 0.804085
vt 0.539576 0.720589
vt 0.526639 0.725131
vt 0.090564 0.729230
vt 0.015625 0.514366
vt 0.015646 0.808809
vt 0.015625 0.278827
vt 0.871397 0.350612
vt 0.945707 0.345904
vt 0.945729 0.197651
vt 0.015625 0.431801
vt 0.345674 0.853436
vt 0.074020 0.899493
vt 0.857825 0.480157
vt 0.205574 0.431801
vt 0.753709 0.970038
vt 0.345674 0.923845
vt 0.770480 0.614631
vt 0.205574 0.361392
vt 0.681447 0.350612
vt 0.933706 0.430508
vt 0.858130 0.633131
vt 0.875148 0.768232
vt 0.681447 0.280205
vt 0.770480 0.461658
vt 0.925913 0.852713
vt 0.945556 0.768232
vt 0.875174 0.683842
vt 0.875324 0.350088
vt 0.724666 0.015637
vt 0.945582 0.683842
vt 0.015637 0.979913
vt 0.795074 0.015637
vt 0.984296 0.772294
vt 0.724666 0.168611
vt 0.261342 0.853443
vt 0.945707 0.274401
vt 0.695326 0.889619
vt 0.795074 0.168611
vt 0.261342 0.923852
vt 0.683383 0.127328
vt 0.925913 0.772294
vt 0.945556 0.687812
vt 0.683383 0.056920
vt 0.933706 0.350088
vt 0.875148 0.687812
vt 0.836357 0.127328
vt 0.753709 0.889619
vt 0.265255 0.923845
vt 0.695326 0.970038
vt 0.729198 0.573348
vt 0.180923 0.923852
vt 0.984296 0.852713
vt 0.729198 0.502940
vt 0.180923 0.853443
vt 0.945582 0.603422
vt 0.015637 0.899493
vt 0.816624 0.521523
vt 0.875174 0.603422
vt 0.875324 0.430508
vt 0.816765 0.591930
vt 0.836357 0.056920
vt 0.265255 0.853436
vt 0.074020 0.979913
vt 0.251159 0.015621
vt 0.469237 0.015636
vt 0.292010 0.690620
vt 0.679483 0.015636
vt 0.255091 0.273955
vt 0.015620 0.015621
vt 0.684015 0.366524
vt 0.465338 0.273955
vt 0.251159 0.273939
vt 0.469237 0.273954
vt 0.292010 0.432303
vt 0.679483 0.273954
vt 0.255091 0.015637
vt 0.015620 0.273939
vt 0.443889 0.690640
vt 0.209444 0.690620
vt 0.368470 0.432323
vt 0.601450 0.366524
vt 0.295952 0.432323
vt 0.372386 0.690640
vt 0.684015 0.624841
vt 0.465338 0.015637
vt 0.368470 0.690641
vt 0.601449 0.624841
vt 0.295952 0.690641
vt 0.443889 0.432323
vt 0.209444 0.432303
vt 0.372386 0.432323
vt 0.204237 0.015621
vt 0.928560 0.083539
vt 0.972282 0.592368
vt 0.062542 0.015621
vt 0.204237 0.083527
vt 0.131845 0.983788
vt 0.928560 0.015633
vt 0.162269 0.117370
vt 0.077931 0.983788
vt 0.984394 0.088010
vt 0.979802 0.912510
vt 0.984394 0.145769
vt 0.104510 0.117370
vt 0.972282 0.524463
vt 0.925888 0.912510
vt 0.062542 0.083527
vt 0.984389 0.083539
vt 0.447805 0.518972
vt 0.916452 0.592368
vt 0.447805 0.660667
vt 0.131844 0.927959
vt 0.984389 0.015633
vt 0.515711 0.518972
vt 0.077931 0.927959
vt 0.928564 0.088010
vt 0.549554 0.560940
vt 0.979802 0.856681
vt 0.928564 0.145769
vt 0.549554 0.618700
vt 0.916452 0.524463
vt 0.925888 0.856681
vt 0.515711 0.660667
s 1
usemtl Material.002
f 44/115/1 25/77/1 15/46/1 11/35/1
f 7/19/2 4/10/2 13/40/2 17/52/2
f 6/16/3 24/73/3 26/84/3
f 25/78/4 5/13/4 10/32/4 15/47/4
f 15/48/3 10/33/3 11/36/3
f 36/102/3 16/49/3 12/38/3
f 13/41/3 14/43/3 17/53/3
f 35/99/3 9/29/3 18/55/3
f 3/7/5 7/20/5 17/54/5 14/44/5
f 1/1/2 8/24/2 18/56/2 9/30/2
f 8/25/6 2/4/6 35/100/6 18/57/6
f 26/82/5 45/118/5 12/39/5 16/50/5
f 6/17/4 26/83/4 16/51/4 36/103/4
f 11/37/7 10/34/7 5/14/7 44/116/7
f 35/101/8 2/5/8 1/2/8 9/31/8
f 23/69/3 4/11/3 7/21/3 26/84/3
f 1/3/3 22/67/3 25/79/3 8/26/3
f 21/65/3 5/15/3 25/79/3
f 23/69/3 26/84/3 24/73/3
f 21/65/3 25/79/3 22/67/3
f 20/62/3 47/122/3 28/89/3 27/87/3
f 21/66/3 22/68/3 30/92/3 43/114/3
f 23/70/3 24/74/3 32/95/3 31/93/3
f 20/63/5 27/88/5 34/98/5 33/97/5
f 32/96/4 24/75/4 38/107/4 40/110/4
f 24/76/5 6/18/5 36/104/5 38/108/5
f 23/71/2 31/94/2 39/109/2 37/105/2
f 4/12/5 23/72/5 37/106/5 13/42/5
f 19/58/2 3/8/2 14/45/2 41/111/2
f 29/90/5 19/59/5 41/112/5 42/113/5
f 46/120/3 2/6/3 8/27/3 50/132/3
f 26/85/3 49/131/3 20/64/3 45/119/3
f 64/174/3 59/159/3 56/151/3 53/145/3
f 52/142/3 54/147/3 57/153/3 58/156/3
f 50/132/3 51/136/3 19/61/3 46/120/3
f 19/60/3 29/91/3 55/149/3 46/121/3
f 49/128/9 60/162/9 56/150/9 59/160/9
f 48/124/2 49/129/2 59/161/2 64/175/2
f 63/171/5 62/168/5 53/143/5 52/140/5
f 62/169/7 48/125/7 64/176/7 53/144/7
f 50/133/8 63/172/8 52/141/8 58/157/8
f 50/134/3 8/28/3 63/173/3
f 63/173/3 8/28/3 25/81/3 62/170/3
f 48/127/3 25/80/3 44/117/3 47/123/3
f 62/170/3 25/81/3 48/126/3
f 3/9/3 19/61/3 51/136/3 7/22/3
f 7/23/3 51/137/3 61/166/3
f 26/86/3 60/163/3 49/130/3
f 61/165/10 51/138/10 57/154/10 54/146/10
f 7/23/3 61/166/3 60/163/3 26/86/3
f 56/151/3 54/147/3 52/142/3 53/145/3
f 47/123/3 20/64/3 49/131/3 48/127/3
f 61/167/6 54/148/6 56/152/6 60/164/6
f 51/139/4 50/135/4 58/158/4 57/155/4
f 75/196/5 80/204/5 79/202/5 72/191/5
f 73/193/5 77/199/5 78/201/5 74/195/5
f 83/209/5 69/185/5 84/212/5
f 73/194/2 68/183/2 76/197/2 77/200/2
f 72/192/4 79/203/4 70/187/4 66/179/4
f 81/205/5 65/177/5 69/185/5 83/209/5
f 69/185/5 71/190/5 85/217/5 84/212/5
f 65/178/8 66/180/8 70/188/8 69/186/8
f 86/218/2 82/207/2 88/223/2 92/234/2
f 85/215/11 86/219/11 92/235/11 91/231/11
f 83/210/12 84/213/12 90/228/12 89/225/12
f 81/206/4 83/211/4 89/226/4 87/221/4
f 84/214/13 85/216/13 91/232/13 90/229/13
f 90/230/5 91/233/5 92/236/5 89/227/5
f 89/227/5 92/236/5 88/224/5 87/222/5
f 68/184/7 67/181/7 71/189/7 76/198/7
f 85/217/5 71/190/5 86/220/5
f 71/190/5 67/182/5 82/208/5 86/220/5
